<svg width="64" height="68" viewBox="0 0 64 68" fill="none" xmlns="http://www.w3.org/2000/svg">
<path d="M59.4286 0H4.55714C2.04286 0 0 2.18075 0 4.85782V62.52C0 65.197 2.04286 67.3778 4.55714 67.3778H59.4286C61.9429 67.3778 64 65.197 64 62.52V4.85782C64 2.18075 61.9429 0 59.4286 0ZM19.3429 57.7524H9.85714V25.5975H19.3571V57.7524H19.3429ZM14.6 21.206C11.5571 21.206 9.1 18.6041 9.1 15.4157C9.1 12.2273 11.5571 9.6254 14.6 9.6254C17.6286 9.6254 20.1 12.2273 20.1 15.4157C20.1 18.6191 17.6429 21.206 14.6 21.206ZM54.9 57.7524H45.4143V42.1111C45.4143 38.3813 45.3429 33.5836 40.4857 33.5836C35.5429 33.5836 34.7857 37.6443 34.7857 41.8404V57.7524H25.3V25.5975H34.4V29.9891H34.5286C35.8 27.4625 38.9 24.8004 43.5143 24.8004C53.1143 24.8004 54.9 31.463 54.9 40.1259V57.7524Z" fill="black"/>
</svg>
