<svg width="64" height="68" viewBox="0 0 64 68" fill="none" xmlns="http://www.w3.org/2000/svg">
<path d="M57.1429 0H6.85714C3.07143 0 0 3.23353 0 7.21905V60.1587C0 64.1442 3.07143 67.3778 6.85714 67.3778H57.1429C60.9286 67.3778 64 64.1442 64 60.1587V7.21905C64 3.23353 60.9286 0 57.1429 0ZM39.6143 57.7073C38.4143 57.9329 37.9714 57.1508 37.9714 56.5041C37.9714 55.6919 38 51.541 38 48.1871C38 45.841 37.2571 44.352 36.3857 43.57C41.6714 42.9533 47.2429 42.1863 47.2429 32.576C47.2429 29.8387 46.3143 28.4701 44.8 26.7105C45.0429 26.0638 45.8571 23.4017 44.5571 19.9426C42.5714 19.2959 38.0286 22.6347 38.0286 22.6347C36.1429 22.0783 34.1 21.7925 32.0857 21.7925C30.0714 21.7925 28.0286 22.0783 26.1429 22.6347C26.1429 22.6347 21.6 19.2959 19.6143 19.9426C18.3143 23.3867 19.1143 26.0487 19.3714 26.7105C17.8571 28.4701 17.1429 29.8387 17.1429 32.576C17.1429 42.1412 22.4714 42.9533 27.7571 43.57C27.0714 44.2167 26.4571 45.3296 26.2429 46.9238C24.8857 47.5705 21.4143 48.6835 19.3429 44.8333C18.0429 42.457 15.7 42.2615 15.7 42.2615C13.3857 42.2314 15.5429 43.7956 15.5429 43.7956C17.0857 44.5475 18.1714 47.4352 18.1714 47.4352C19.5571 51.9019 26.1857 50.398 26.1857 50.398C26.1857 52.4885 26.2143 55.8875 26.2143 56.5041C26.2143 57.1508 25.7857 57.9329 24.5714 57.7073C15.1429 54.3835 8.54286 44.9386 8.54286 33.8994C8.54286 20.093 18.5714 9.61036 31.6857 9.61036C44.8 9.61036 55.4286 20.093 55.4286 33.8994C55.4429 44.9386 49.0429 54.3985 39.6143 57.7073ZM25.6 48.518C25.3286 48.5782 25.0714 48.4579 25.0429 48.2623C25.0143 48.0367 25.2 47.8412 25.4714 47.7811C25.7429 47.751 26 47.8713 26.0286 48.0668C26.0714 48.2623 25.8857 48.4579 25.6 48.518ZM24.2429 48.3827C24.2429 48.5782 24.0286 48.7436 23.7429 48.7436C23.4286 48.7737 23.2143 48.6083 23.2143 48.3827C23.2143 48.1871 23.4286 48.0217 23.7143 48.0217C23.9857 47.9916 24.2429 48.1571 24.2429 48.3827ZM22.2857 48.2172C22.2286 48.4127 21.9429 48.503 21.7 48.4127C21.4286 48.3526 21.2429 48.127 21.3 47.9315C21.3571 47.736 21.6429 47.6457 21.8857 47.7059C22.1714 47.7961 22.3571 48.0217 22.2857 48.2172ZM20.5286 47.4051C20.4 47.5705 20.1286 47.5404 19.9143 47.3148C19.7 47.1193 19.6429 46.8336 19.7857 46.6982C19.9143 46.5328 20.1857 46.5629 20.4 46.7885C20.5857 46.984 20.6571 47.2848 20.5286 47.4051ZM19.2286 46.0365C19.1 46.1267 18.8571 46.0365 18.7 45.8109C18.5429 45.5853 18.5429 45.3296 18.7 45.2243C18.8571 45.089 19.1 45.1943 19.2286 45.4198C19.3857 45.6454 19.3857 45.9162 19.2286 46.0365ZM18.3 44.5776C18.1714 44.713 17.9571 44.6378 17.8 44.4874C17.6429 44.2919 17.6143 44.0663 17.7429 43.961C17.8714 43.8256 18.0857 43.9008 18.2429 44.0512C18.4 44.2467 18.4286 44.4723 18.3 44.5776ZM17.3429 43.4647C17.2857 43.6 17.1 43.6301 16.9429 43.5248C16.7571 43.4346 16.6714 43.2692 16.7286 43.1338C16.7857 43.0436 16.9429 42.9985 17.1286 43.0737C17.3143 43.1789 17.4 43.3444 17.3429 43.4647Z" fill="black"/>
</svg>
